<svg id="Layer_1" data-name="Layer 1" xmlns="http://www.w3.org/2000/svg" viewBox="0 0 174.23 27.56"><defs><style>.cls-1{fill:#fa5c5c;}.cls-2{fill:none;stroke:#e05353;stroke-width:2px;}.cls-3{font-size:14.15px;font-family:OpenSans-Bold, Open Sans;font-weight:700;}.cls-3,.cls-5{fill:#fff;}.cls-4{stroke:#fff;stroke-miterlimit:10;stroke-width:0.5px;letter-spacing:0em;}</style></defs><g id="Rectangle_1" data-name="Rectangle 1"><path class="cls-1" d="M172.75,2.34H6.23A2.67,2.67,0,0,0,3.38,4.76V25.48A2.66,2.66,0,0,0,6.23,27.9H172.75a2.66,2.66,0,0,0,2.85-2.42V4.76A2.67,2.67,0,0,0,172.75,2.34Z" transform="translate(-2.38 -1.34)"/><path class="cls-2" d="M172.75,2.34H6.23A2.67,2.67,0,0,0,3.38,4.76V25.48A2.66,2.66,0,0,0,6.23,27.9H172.75a2.66,2.66,0,0,0,2.85-2.42V4.76A2.67,2.67,0,0,0,172.75,2.34Z" transform="translate(-2.38 -1.34)"/></g><text class="cls-3" transform="translate(2.62 18.77)">Download on <tspan class="cls-4" x="96.66" y="0">itch.io</tspan></text><path class="cls-5" d="M153,5.06c-1,.58-2.94,2.82-3,3.41v1a2.41,2.41,0,0,0,2.2,2.31,2.31,2.31,0,0,0,2.3-2.27,2.28,2.28,0,0,0,2.26,2.27A2.25,2.25,0,0,0,159,9.48a2.34,2.34,0,0,0,2.33,2.27h0a2.33,2.33,0,0,0,2.33-2.27,2.25,2.25,0,0,0,2.23,2.27,2.28,2.28,0,0,0,2.27-2.27,2.31,2.31,0,0,0,2.3,2.27,2.41,2.41,0,0,0,2.19-2.31v-1c0-.59-2-2.83-2.95-3.41-3.07-.11-5.2-.13-8.38-.13s-7.5.05-8.37.13Zm6,6.11a2.71,2.71,0,0,1-.44.57,2.66,2.66,0,0,1-1.84.75,2.63,2.63,0,0,1-1.84-.75,2.32,2.32,0,0,1-.43-.56h0a2.7,2.7,0,0,1-.45.56,2.67,2.67,0,0,1-1.85.75.74.74,0,0,1-.25-.05c-.1,1.05-.14,2.06-.15,2.79h0c0,.37,0,.68,0,1.1,0,2.21-.22,7.15,1,8.36a45.5,45.5,0,0,0,8.64.63h0a45.36,45.36,0,0,0,8.64-.63c1.19-1.21,1-6.15,1-8.36v-1.1h0c0-.73-.06-1.74-.16-2.79a.66.66,0,0,1-.25.05,2.63,2.63,0,0,1-1.84-.75,2.75,2.75,0,0,1-.46-.56h0a2.56,2.56,0,0,1-.42.56,2.63,2.63,0,0,1-3.68,0,2.71,2.71,0,0,1-.44-.57,2.71,2.71,0,0,1-.44.57,2.63,2.63,0,0,1-1.84.75h-.15A2.56,2.56,0,0,1,159,11.17Zm-1.89,2.45h0a2.53,2.53,0,0,1,2.24.9,18.6,18.6,0,0,1,2-.1h0a18.92,18.92,0,0,1,2,.1,2.52,2.52,0,0,1,2.24-.9h0c.35,0,1.77,0,2.76,2.77l1.06,3.8c.78,2.83-.26,2.9-1.55,2.9a2.9,2.9,0,0,1-3-2.86,21.76,21.76,0,0,1-3.54.27h0a21.76,21.76,0,0,1-3.54-.27,2.9,2.9,0,0,1-3,2.86c-1.29,0-2.33-.07-1.54-2.9l1.06-3.8c1-2.77,2.4-2.77,2.76-2.77Zm4.24,2.18h0A20.2,20.2,0,0,0,159,18.31l1.32,0v1.15a4.31,4.31,0,0,0,1.06,0h0a4.31,4.31,0,0,0,1.06,0V18.26l1.32,0a20.2,20.2,0,0,0-2.38-2.51Z" transform="translate(-2.38 -1.34)"/></svg>